<?xml version="1.0" standalone="no"?>
<!DOCTYPE svg PUBLIC "-//W3C//DTD SVG 20010904//EN"
 "http://www.w3.org/TR/2001/REC-SVG-20010904/DTD/svg10.dtd">
<svg version="1.0" xmlns="http://www.w3.org/2000/svg"
 width="300.000000pt" height="300.000000pt" viewBox="0 0 300.000000 300.000000"
 preserveAspectRatio="xMidYMid meet">
<metadata>
Created by potrace 1.11, written by Peter Selinger 2001-2013
</metadata>
<g transform="translate(0.000000,300.000000) scale(0.100000,-0.100000)"
fill="#000000" stroke="none">
<path d="M0 1500 l0 -1500 1500 0 1500 0 0 1500 0 1500 -1500 0 -1500 0 0
-1500z m2024 1124 c3 -8 6 -28 6 -44 0 -15 7 -44 15 -63 8 -20 15 -53 15 -74
0 -21 7 -56 15 -78 8 -22 14 -57 15 -78 0 -21 5 -47 10 -58 6 -10 15 -47 20
-82 22 -144 32 -205 41 -252 20 -95 -2 -481 -30 -534 -6 -11 -11 -30 -11 -43
0 -13 -7 -36 -15 -52 -8 -15 -15 -34 -15 -42 0 -20 -59 -133 -92 -175 -15 -20
-28 -39 -28 -43 0 -17 -151 -146 -172 -146 -7 0 -22 -7 -32 -15 -11 -8 -32
-15 -46 -15 -14 0 -31 -5 -37 -11 -16 -16 -159 -33 -273 -33 -117 0 -208 12
-237 30 -12 8 -29 14 -38 14 -17 0 -104 60 -105 73 0 4 19 7 41 7 96 0 243 69
319 150 59 64 130 167 130 191 0 6 6 25 14 42 35 78 37 291 4 382 -42 114 -74
164 -157 242 -80 75 -89 83 -105 83 -7 0 -19 7 -26 15 -7 8 -22 15 -34 15 -11
0 -34 7 -50 15 -18 10 -57 15 -113 15 -75 0 -107 -6 -198 -37 -61 -20 -225
-167 -225 -202 0 -6 -3 -11 -8 -11 -4 0 -18 -24 -31 -52 -12 -29 -27 -62 -33
-72 -15 -28 -31 -134 -31 -201 0 -75 20 -206 33 -219 5 -5 10 -19 10 -29 0
-31 98 -237 112 -237 5 0 8 -5 8 -12 0 -33 217 -268 248 -268 5 0 17 -9 27
-20 10 -11 24 -20 30 -20 7 0 18 -7 25 -15 7 -8 20 -15 30 -15 10 0 23 -7 30
-15 7 -8 22 -15 34 -15 11 0 30 -7 40 -15 11 -8 34 -15 52 -15 17 0 51 -7 74
-15 50 -18 244 -21 286 -5 15 6 52 15 83 19 102 16 214 63 331 140 53 35 210
186 210 202 0 4 6 14 13 21 16 18 35 48 46 75 6 11 15 24 20 28 6 3 11 14 11
24 0 10 7 24 15 31 8 7 15 22 15 34 0 12 7 31 15 42 8 10 15 30 15 44 0 14 7
36 15 50 8 14 14 39 15 55 0 17 7 52 15 79 18 58 21 421 4 496 -5 25 -13 74
-18 110 -5 36 -14 78 -20 93 -6 16 -11 43 -11 61 0 19 -7 53 -15 76 -8 23 -15
57 -15 76 0 18 -5 45 -11 61 -6 15 -15 53 -19 83 -5 30 -14 74 -20 97 -21 74
-30 71 244 72 l246 1 0 -1195 c0 -657 0 -1198 0 -1202 0 -5 -562 -8 -1250 -8
-687 0 -1250 3 -1250 8 0 4 0 545 0 1202 l0 1195 884 0 c799 0 884 -1 890 -16z"/>
</g>
</svg>
